<?xml version="1.0" encoding="utf-8"?>
<!-- Generator: Adobe Illustrator 27.2.0, SVG Export Plug-In . SVG Version: 6.00 Build 0)  -->
<svg version="1.1" id="Capa_1" xmlns="http://www.w3.org/2000/svg" xmlns:xlink="http://www.w3.org/1999/xlink" x="0px" y="0px"
	 viewBox="0 0 130.7 115.2" style="enable-background:new 0 0 130.7 115.2;" xml:space="preserve">
<style type="text/css">
	.st0{fill:#8E8E8E;}
</style>
<path class="st0" d="M65.4,115.2l-55-55C7,56.9,4.5,53.1,2.7,48.8S0,39.9,0,35.3v-1.5C0,15.1,15.1,0,33.7,0c5,0,10.1,1.1,14.6,3.3
	s8.6,5.4,11.7,9.3l5.3,6.6l5.3-6.6c3.1-3.9,7.2-7.2,11.7-9.3C86.9,1.1,91.9,0,97,0c18.6,0,33.7,15.1,33.7,33.7v1.5
	c0,4.7-0.9,9.2-2.7,13.5s-4.3,8.2-7.6,11.4L65.4,115.2L65.4,115.2z M33.7,2.6c-17.2,0-31.2,14-31.2,31.2v1.5c0,8.7,3.4,17,9.6,23.1
	l53.2,53.2l53.2-53.2c6.2-6.2,9.6-14.4,9.6-23.1v-1.5c0-17.2-14-31.2-31.2-31.2c-9.5,0-18.4,4.3-24.3,11.7l-7.3,9.1L58,14.3
	C52.1,6.8,43.3,2.6,33.7,2.6L33.7,2.6z"/>
</svg>
