<?xml version="1.0" encoding="utf-8"?>
<!-- Generator: Adobe Illustrator 27.2.0, SVG Export Plug-In . SVG Version: 6.00 Build 0)  -->
<svg version="1.1" id="Capa_1" xmlns="http://www.w3.org/2000/svg" xmlns:xlink="http://www.w3.org/1999/xlink" x="0px" y="0px"
	 viewBox="0 0 130.7 115.2" style="enable-background:new 0 0 130.7 115.2;" xml:space="preserve">
<style type="text/css">
	.st0{fill:#00E380;}
</style>
<path class="st0" d="M130.7,33.7v1.5c0,4.7-0.9,9.2-2.7,13.5s-4.3,8.2-7.6,11.4l-55,55l-55-55C7,56.9,4.5,53.1,2.7,48.8
	S0,39.9,0,35.3v-1.5C0,15.1,15.1,0,33.7,0c5,0,10.1,1.1,14.6,3.3c4.5,2.2,8.6,5.4,11.7,9.3l5.3,6.6l5.3-6.6
	c3.1-3.9,7.2-7.2,11.7-9.3C86.9,1.1,92,0,97,0C115.6,0,130.7,15.1,130.7,33.7z"/>
</svg>
