<?xml version="1.0" encoding="UTF-8"?>
<svg id="Capa_1" data-name="Capa 1" xmlns="http://www.w3.org/2000/svg" xmlns:xlink="http://www.w3.org/1999/xlink" viewBox="0 0 26.32 26.32">
  <defs>
    <style>
      .cls-1 {
        fill: #fff;
      }

      .cls-2 {
        fill: url(#Degradado_sin_nombre_15);
      }

      .cls-3 {
        fill: #32a836;
      }
    </style>
    <radialGradient id="Degradado_sin_nombre_15" data-name="Degradado sin nombre 15" cx="13.16" cy="13.16" fx="13.16" fy="13.16" r="13.16" gradientUnits="userSpaceOnUse">
      <stop offset="0" stop-color="#274b99"/>
      <stop offset="1" stop-color="#2758ce"/>
    </radialGradient>
  </defs>
  <circle class="cls-2" cx="13.16" cy="13.16" r="13.16"/>
  <g>
    <path class="cls-3" d="m20.6,5.07c-.22-.14-.51-.07-.64.15-.14.22-.07.51.15.65,1.05.66,1.87,2.2,1.87,3.51v.02c0,1.61-.91,3.25-2.72,4.85-.19.17-.21.47-.04.66.09.1.22.16.35.16.11,0,.22-.04.31-.12,2.01-1.79,3.03-3.65,3.03-5.55v-.02c0-1.63-.99-3.48-2.3-4.3Zm-3.49,1.18c-.23-.12-.51-.03-.63.2-.12.23-.03.51.2.63.94.49,1.52,1.46,1.52,2.52,0,1.15-.73,2.33-1.81,2.94-.22.13-.3.41-.18.64.09.15.24.24.41.24.08,0,.16-.02.23-.06,1.36-.77,2.28-2.27,2.29-3.75h0c0-1.42-.78-2.7-2.02-3.35Zm-7.18,6.28c-1.08-.61-1.81-1.79-1.81-2.94,0-1.06.58-2.02,1.52-2.52.23-.12.32-.4.2-.63-.12-.23-.4-.32-.63-.2-1.24.65-2.01,1.93-2.02,3.34h0c0,1.49.92,3,2.29,3.76.07.04.15.06.23.06.16,0,.32-.09.41-.24.13-.23.05-.51-.18-.64Zm-2.86,1.71c-1.8-1.6-2.72-3.23-2.72-4.85v-.02c0-1.31.82-2.85,1.87-3.51.22-.14.28-.43.15-.65-.14-.22-.43-.29-.64-.15-1.31.83-2.3,2.68-2.3,4.3v.02c0,1.89,1.02,3.76,3.03,5.55.09.08.2.12.31.12.13,0,.26-.05.35-.16.17-.19.15-.49-.04-.66Z"/>
    <g>
      <path class="cls-1" d="m15.8,16.7c-.01-.24-.09-1.03-.7-1.72-.13-.15-.59-.65-1.36-.83-1.38-.33-2.44.65-2.5.7-.52.5-.71,1.08-.78,1.36l-.07,6.06h5.42v-5.57Z"/>
      <path class="cls-1" d="m13.17,11.97c1.12,0,2.02-.91,2.02-2.03s-.91-2.03-2.02-2.03-2.02.91-2.02,2.03.91,2.03,2.02,2.03Z"/>
    </g>
  </g>
</svg>