<?xml version="1.0" encoding="UTF-8"?>
<svg id="Capa_1" data-name="Capa 1" xmlns="http://www.w3.org/2000/svg" viewBox="0 0 169.47 40.64">
  <defs>
    <style>
      .cls-1 {
        isolation: isolate;
      }

      .cls-2 {
        fill: #0071bc;
      }

      .cls-3 {
        fill: #00e380;
      }
    </style>
  </defs>
  <path class="cls-2" d="m16.71,26.38c.16-.66.61-2.03,1.83-3.2.13-.13,2.63-2.43,5.87-1.65,1.82.44,2.88,1.6,3.2,1.96,1.45,1.62,1.62,3.47,1.65,4.04l.03,13.11h-12.74s.16-14.26.16-14.26Z"/>
  <path class="cls-3" d="m8.69,23.31c-.22.25-.52.37-.82.37-.26,0-.52-.09-.73-.28C2.4,19.2,0,14.8,0,10.35v-.05C0,6.47,2.33,2.11,5.42.17c.51-.32,1.19-.17,1.51.35.32.51.17,1.2-.35,1.52-2.46,1.55-4.39,5.18-4.39,8.26v.05c0,3.8,2.15,7.64,6.4,11.41.45.4.5,1.1.09,1.56m7.07-4.09c-.2.36-.58.56-.96.56-.18,0-.37-.05-.54-.14-3.21-1.8-5.37-5.34-5.38-8.82v-.03c.01-3.31,1.83-6.31,4.75-7.85.54-.28,1.2-.08,1.48.46.28.54.08,1.2-.46,1.49-2.2,1.16-3.57,3.43-3.58,5.92,0,2.71,1.72,5.49,4.26,6.91.53.3.72.97.42,1.5m15.84.42c-.17.09-.35.14-.54.14-.38,0-.76-.2-.96-.56-.3-.53-.11-1.2.42-1.5,2.54-1.43,4.25-4.2,4.26-6.91,0-2.49-1.37-4.76-3.58-5.92-.54-.28-.74-.95-.46-1.49s.95-.75,1.49-.46c2.92,1.54,4.74,4.55,4.75,7.85v.03c0,3.48-2.18,7.02-5.39,8.82m14.26-9.3c0,4.46-2.4,8.85-7.13,13.06-.21.19-.47.28-.73.28-.3,0-.61-.12-.82-.37-.4-.45-.36-1.15.09-1.56,4.24-3.77,6.4-7.61,6.4-11.41v-.05c0-3.08-1.93-6.71-4.39-8.26-.51-.32-.67-1-.35-1.52s1-.67,1.51-.35c3.09,1.94,5.42,6.3,5.42,10.13v.05"/>
  <path class="cls-2" d="m22.93,16.89c-2.78,0-5.05-2.27-5.05-5.06s2.26-5.06,5.05-5.06,5.05,2.26,5.05,5.06-2.26,5.06-5.05,5.06"/>
  <g>
    <g class="cls-1">
      <g class="cls-1">
        <path class="cls-2" d="m55.29,23.97v-9.79h2.17v9.79h-2.17Z"/>
        <path class="cls-2" d="m58.55,23.97v-9.79h7.61c2.17,0,3.26,1.09,3.26,3.26v6.52h-2.17v-6.52c0-.72-.36-1.09-1.09-1.09h-5.44v7.61h-2.17Z"/>
        <path class="cls-2" d="m70.51,23.97v-9.79h7.61c2.17,0,3.26,1.09,3.26,3.26v3.26c0,2.17-1.09,3.26-3.26,3.26h-7.61Zm7.61-2.17c.72,0,1.09-.36,1.09-1.09v-3.26c0-.72-.36-1.09-1.09-1.09h-5.44v5.44h5.44Z"/>
        <path class="cls-2" d="m85.74,23.97c-2.17,0-3.26-1.09-3.26-3.26v-3.26c0-2.17,1.09-3.26,3.26-3.26h4.35c2.17,0,3.26,1.09,3.26,3.26v3.26c0,2.17-.91,3.26-2.72,3.26h-4.89Zm0-2.17h4.35c.72,0,1.09-.36,1.09-1.09v-3.26c0-.72-.36-1.09-1.09-1.09h-4.35c-.73,0-1.09.36-1.09,1.09v3.26c0,.72.36,1.09,1.09,1.09Z"/>
        <path class="cls-2" d="m96.61,21.25v2.72h-2.17v-6.52c0-2.17,1.09-3.26,3.26-3.26h4.35c2.17,0,3.26,1.09,3.26,3.26v6.52h-2.17v-2.72h-6.52Zm6.52-2.17v-1.63c0-.72-.36-1.09-1.09-1.09h-4.35c-.72,0-1.09.36-1.09,1.09v1.63h6.52Z"/>
        <path class="cls-2" d="m106.4,23.97v-9.79h8.7c2.17,0,3.26,1.09,3.26,3.26v6.52h-2.17v-6.52c0-.72-.36-1.09-1.09-1.09h-1.63v7.61h-2.17v-7.61h-2.72v7.61h-2.17Z"/>
        <path class="cls-2" d="m130.32,23.97h-7.61c-2.17,0-3.26-1.09-3.26-3.26v-6.53h10.87v2.18h-8.7v1.63h8.7v2.17h-8.7v.54c0,.72.36,1.09,1.09,1.09h7.61v2.17Zm-6.52-14.68v4.35c1.45,0,2.17-.72,2.17-2.17v-2.17h-2.17Z"/>
        <path class="cls-2" d="m133.58,20.16v3.81h-2.17v-9.79h7.61c2.17,0,3.26.99,3.26,2.98,0,.94-.16,1.64-.47,2.08.31.51.47,1.19.47,2.01v2.72h-2.17v-2.72c0-.72-.36-1.09-1.09-1.09h-5.44Zm0-2.17h6.52v-1.63h-6.52v1.63Z"/>
        <path class="cls-2" d="m143.37,23.97v-9.79h2.17v9.79h-2.17Z"/>
        <path class="cls-2" d="m157.51,23.97h-7.61c-2.17,0-3.26-1.09-3.26-3.26v-3.26c0-2.17,1.09-3.26,3.26-3.26h7.61v2.18h-7.61c-.72,0-1.09.36-1.09,1.09v3.26c0,.72.36,1.09,1.09,1.09h7.61v2.17Z"/>
        <path class="cls-2" d="m160.77,21.25v2.72h-2.17v-6.52c0-2.17,1.09-3.26,3.26-3.26h4.35c2.17,0,3.26,1.09,3.26,3.26v6.52h-2.17v-2.72h-6.52Zm6.52-2.17v-1.63c0-.72-.36-1.09-1.09-1.09h-4.35c-.73,0-1.09.36-1.09,1.09v1.63h6.52Z"/>
      </g>
    </g>
    <g class="cls-1">
      <g class="cls-1">
        <path class="cls-3" d="m111.91,37.92v-2.41h4.22v-4.83c0-.8-.4-1.21-1.21-1.21h-.6v-2.41h4.22v8.45h4.22v2.41h-10.86Z"/>
        <path class="cls-3" d="m123.98,34.3v-3.62c0-2.41,1.21-3.62,3.62-3.62h3.62c2.41,0,3.62,1.21,3.62,3.62v3.62c0,2.41-1.21,3.62-3.62,3.62h-3.62c-2.41,0-3.62-1.21-3.62-3.62Zm7.24,1.21c.8,0,1.21-.4,1.21-1.21v-3.62c0-.8-.4-1.21-1.21-1.21h-3.62c-.8,0-1.21.4-1.21,1.21v3.62c0,.8.4,1.21,1.21,1.21h3.62Z"/>
        <path class="cls-3" d="m136.05,27.05h7.24c2.41,0,3.62,1.21,3.62,3.62v7.24h-10.86v-2.41h8.45v-1.81h-8.45v-2.41h8.45v-.6c0-.8-.4-1.21-1.21-1.21h-7.24v-2.41Z"/>
        <path class="cls-3" d="m148.12,37.92v-2.41h2.41v2.41h-2.41Z"/>
        <path class="cls-3" d="m162.61,30.68v7.24h-2.41v-4.22h-4.83c-2.41,0-3.62-1.1-3.62-3.31s1.21-3.33,3.62-3.33h3.62c2.41,0,3.62,1.21,3.62,3.62Zm-2.41.6v-1.81h-6.04v1.81h6.04Z"/>
      </g>
    </g>
    <g class="cls-1">
      <g class="cls-1">
        <path class="cls-2" d="m67.27,28.45v3.49c0,.39.19.58.58.58h4.07v1.16h-4.07c-1.16,0-1.75-.58-1.75-1.75v-3.49h1.16Z"/>
        <path class="cls-2" d="m73.68,32.23v1.46h-1.16v-3.49c0-1.16.58-1.75,1.75-1.75h2.33c1.16,0,1.75.58,1.75,1.75v3.49h-1.16v-1.46h-3.49Zm3.49-1.16v-.87c0-.39-.19-.58-.58-.58h-2.33c-.39,0-.58.2-.58.58v.87h3.49Z"/>
        <path class="cls-2" d="m82.41,31.65v2.04h-1.16v-5.24h4.07c1.16,0,1.75.53,1.75,1.6,0,.5-.08.88-.25,1.11.17.28.25.63.25,1.08v1.46h-1.16v-1.46c0-.39-.19-.58-.58-.58h-2.91Zm0-1.16h3.49v-.87h-3.49v.87Z"/>
        <path class="cls-2" d="m88.81,32.23v1.46h-1.16v-3.49c0-1.16.58-1.75,1.75-1.75h2.33c1.16,0,1.75.58,1.75,1.75v3.49h-1.16v-1.46h-3.49Zm3.49-1.16v-.87c0-.39-.19-.58-.58-.58h-2.33c-.39,0-.58.2-.58.58v.87h3.49Z"/>
        <path class="cls-2" d="m94.05,33.69v-5.24h4.07c1.16,0,1.75.58,1.75,1.75v1.75c0,1.16-.58,1.75-1.75,1.75h-4.07Zm4.07-1.16c.39,0,.58-.19.58-.58v-1.75c0-.39-.19-.58-.58-.58h-2.91v2.91h2.91Z"/>
        <path class="cls-2" d="m100.45,33.69v-5.24h1.16v5.24h-1.16Z"/>
        <path class="cls-2" d="m103.94,33.69c-1.16,0-1.75-.58-1.75-1.75v-1.75c0-1.16.58-1.75,1.75-1.75h2.33c1.16,0,1.75.58,1.75,1.75v1.75c0,1.16-.49,1.75-1.46,1.75h-2.62Zm0-1.16h2.33c.39,0,.58-.19.58-.58v-1.75c0-.39-.19-.58-.58-.58h-2.33c-.39,0-.58.2-.58.58v1.75c0,.39.19.58.58.58Z"/>
      </g>
    </g>
  </g>
</svg>