<?xml version="1.0" encoding="utf-8"?>
<!-- Generator: Adobe Illustrator 27.2.0, SVG Export Plug-In . SVG Version: 6.00 Build 0)  -->
<svg version="1.1" id="Capa_1" xmlns="http://www.w3.org/2000/svg" xmlns:xlink="http://www.w3.org/1999/xlink" x="0px" y="0px"
	 viewBox="0 0 1080 1080" style="enable-background:new 0 0 1080 1080;" xml:space="preserve">
<style type="text/css">
	.st0{fill:url(#SVGID_1_);}
	.st1{fill:#F6F6F6;}
	.st2{fill:#00E380;}
	.st3{enable-background:new    ;}
</style>
<radialGradient id="SVGID_1_" cx="540" cy="540" r="540" gradientTransform="matrix(1 0 0 -1 0 1080)" gradientUnits="userSpaceOnUse">
	<stop  offset="0" style="stop-color:#274B99"/>
	<stop  offset="1" style="stop-color:#2758CE"/>
</radialGradient>
<rect class="st0" width="1080" height="1080"/>
<g>
	<path class="st1" d="M444.2,469.6c2.5-10.2,9.3-31.3,28.2-49.3c2-1.9,40.5-37.4,90.5-25.4c28,6.7,44.4,24.7,49.3,30.2
		c22.3,25,24.9,53.4,25.4,62.2l0.5,202H441.8L444.2,469.6L444.2,469.6z"/>
	<path class="st2" d="M320.6,422.3c-3.3,3.8-8,5.7-12.7,5.7c-4,0-8-1.4-11.2-4.3c-72.9-64.8-109.9-132.5-109.9-201.2v-0.8
		c0-59,35.9-126.1,83.5-156c7.9-5,18.4-2.6,23.3,5.4c5,7.9,2.6,18.4-5.3,23.4c-37.9,23.8-67.6,79.8-67.6,127.3v0.8
		c0,58.5,33.2,117.6,98.6,175.8C326.1,404.6,326.8,415.3,320.6,422.3 M429.5,359.3c-3.1,5.5-8.9,8.7-14.8,8.7
		c-2.8,0-5.6-0.7-8.3-2.1c-49.5-27.8-82.8-82.3-83-135.9v-0.5c0.2-50.9,28.2-97.2,73.2-121c8.3-4.4,18.5-1.2,22.9,7.1
		c4.3,8.3,1.2,18.6-7.1,22.9c-33.9,17.9-55,52.8-55.1,91.2c0.1,41.7,26.5,84.5,65.6,106.5C431.1,340.8,434,351.2,429.5,359.3
		 M673.6,365.9c-2.6,1.5-5.4,2.1-8.3,2.1c-5.9,0-11.7-3.1-14.8-8.7c-4.5-8.2-1.7-18.5,6.5-23.1c39.2-22,65.5-64.8,65.6-106.5
		c-0.1-38.4-21.2-73.3-55.1-91.2c-8.3-4.4-11.5-14.6-7.1-22.9s14.6-11.5,22.9-7.1c45,23.7,73,70.1,73.2,121v0.5
		C756.4,283.5,723.1,338.1,673.6,365.9 M893.3,222.6c0,68.7-37,136.3-109.9,201.2c-3.2,2.9-7.2,4.3-11.2,4.3
		c-4.7,0-9.3-1.9-12.7-5.7c-6.2-7-5.6-17.7,1.5-24c65.4-58.1,98.5-117.2,98.5-175.8v-0.8c0-47.5-29.7-103.4-67.6-127.3
		c-7.9-5-10.3-15.5-5.3-23.4c5-8,15.4-10.3,23.3-5.4c47.6,30,83.5,97,83.5,156L893.3,222.6"/>
	<path class="st1" d="M540,323.4c-42.9,0-77.7-34.9-77.7-78s34.9-77.9,77.7-77.9s77.8,34.9,77.8,77.9S583,323.4,540,323.4"/>
	<g class="st3">
		<path class="st1" d="M14.2,843.6v-89.3H34v89.3H14.2z"/>
		<path class="st1" d="M43.9,843.6v-89.3h69.4c19.8,0,29.8,9.9,29.8,29.8v59.5h-19.8v-59.5c0-6.6-3.3-9.9-9.9-9.9H63.8v69.4H43.9z"
			/>
		<path class="st1" d="M153.1,843.6v-89.3h69.4c19.8,0,29.8,9.9,29.8,29.8v29.8c0,19.8-9.9,29.8-29.8,29.8H153.1z M222.5,823.8
			c6.6,0,9.9-3.3,9.9-9.9v-29.8c0-6.6-3.3-9.9-9.9-9.9h-49.6v49.6H222.5z"/>
		<path class="st1" d="M292,843.6c-19.8,0-29.8-9.9-29.8-29.8v-29.8c0-19.8,9.9-29.8,29.8-29.8h39.7c19.8,0,29.8,9.9,29.8,29.8v29.8
			c0,19.8-8.3,29.8-24.8,29.8H292z M292,823.8h39.7c6.6,0,9.9-3.3,9.9-9.9v-29.8c0-6.6-3.3-9.9-9.9-9.9H292c-6.6,0-9.9,3.3-9.9,9.9
			v29.8C282,820.5,285.4,823.8,292,823.8z"/>
		<path class="st1" d="M391.2,818.8v24.8h-19.8v-59.5c0-19.8,9.9-29.8,29.8-29.8h39.7c19.8,0,29.8,9.9,29.8,29.8v59.5h-19.8v-24.8
			H391.2z M450.7,799v-14.9c0-6.6-3.3-9.9-9.9-9.9h-39.7c-6.6,0-9.9,3.3-9.9,9.9V799H450.7z"/>
		<path class="st1" d="M480.5,843.6v-89.3h79.4c19.8,0,29.8,9.9,29.8,29.8v59.5h-19.8v-59.5c0-6.6-3.3-9.9-9.9-9.9h-14.9v69.4h-19.8
			v-69.4h-24.8v69.4H480.5z"/>
		<path class="st1" d="M698.7,843.6h-69.4c-19.8,0-29.8-9.9-29.8-29.8v-59.5h99.2v19.8h-79.4V789h79.4v19.8h-79.4v5
			c0,6.6,3.3,9.9,9.9,9.9h69.4V843.6z M639.2,709.7v39.7c13.2,0,19.8-6.6,19.8-19.8v-19.8H639.2z"/>
		<path class="st1" d="M728.5,808.9v34.7h-19.8v-89.3h69.4c19.8,0,29.8,9.1,29.8,27.2c0,8.6-1.4,14.9-4.3,18.9
			c2.8,4.7,4.3,10.8,4.3,18.4v24.8H788v-24.8c0-6.6-3.3-9.9-9.9-9.9H728.5z M728.5,789H788v-14.9h-59.5V789z"/>
		<path class="st1" d="M817.8,843.6v-89.3h19.8v89.3H817.8z"/>
		<path class="st1" d="M946.7,843.6h-69.4c-19.8,0-29.8-9.9-29.8-29.8v-29.8c0-19.8,9.9-29.8,29.8-29.8h69.4v19.8h-69.4
			c-6.6,0-9.9,3.3-9.9,9.9v29.8c0,6.6,3.3,9.9,9.9,9.9h69.4V843.6z"/>
		<path class="st1" d="M976.5,818.8v24.8h-19.8v-59.5c0-19.8,9.9-29.8,29.8-29.8h39.7c19.8,0,29.8,9.9,29.8,29.8v59.5H1036v-24.8
			H976.5z M1036,799v-14.9c0-6.6-3.3-9.9-9.9-9.9h-39.7c-6.6,0-9.9,3.3-9.9,9.9V799H1036z"/>
	</g>
	<g class="st3">
		<path class="st2" d="M530.7,970.8v-22h38.5v-44c0-7.3-3.7-11-11-11h-5.5v-22h38.5v77.1h38.5v22H530.7z"/>
		<path class="st2" d="M640.8,937.8v-33c0-22,11-33,33-33h33c22,0,33,11,33,33v33c0,22-11,33-33,33h-33
			C651.8,970.8,640.8,959.8,640.8,937.8z M706.9,948.8c7.3,0,11-3.7,11-11v-33c0-7.3-3.7-11-11-11h-33c-7.3,0-11,3.7-11,11v33
			c0,7.3,3.7,11,11,11H706.9z"/>
		<path class="st2" d="M750.9,871.7H817c22,0,33,11,33,33v66.1h-99.1v-22H828v-16.5h-77.1v-22H828v-5.5c0-7.3-3.7-11-11-11h-66.1
			V871.7z"/>
		<path class="st2" d="M861,970.8v-22h22v22H861z"/>
		<path class="st2" d="M993.2,904.8v66.1h-22v-38.5h-44c-22,0-33-10.1-33-30.2c0-20.3,11-30.4,33-30.4h33
			C982.2,871.7,993.2,882.7,993.2,904.8z M971.1,910.3v-16.5h-55.1v16.5H971.1z"/>
	</g>
	<g class="st3">
		<path class="st1" d="M123.5,884.4v31.9c0,3.5,1.8,5.3,5.3,5.3h37.2v10.6h-37.2c-10.6,0-15.9-5.3-15.9-15.9v-31.9H123.5z"/>
		<path class="st1" d="M181.9,919v13.3h-10.6v-31.9c0-10.6,5.3-15.9,15.9-15.9h21.2c10.6,0,15.9,5.3,15.9,15.9v31.9h-10.6V919H181.9
			z M213.7,908.3v-8c0-3.5-1.8-5.3-5.3-5.3h-21.2c-3.5,0-5.3,1.8-5.3,5.3v8H213.7z"/>
		<path class="st1" d="M261.5,913.7v18.6h-10.6v-47.8h37.2c10.6,0,15.9,4.9,15.9,14.5c0,4.6-0.8,8-2.3,10.1c1.5,2.5,2.3,5.8,2.3,9.8
			v13.3h-10.6V919c0-3.5-1.8-5.3-5.3-5.3H261.5z M261.5,903h31.9v-8h-31.9V903z"/>
		<path class="st1" d="M319.9,919v13.3h-10.6v-31.9c0-10.6,5.3-15.9,15.9-15.9h21.2c10.6,0,15.9,5.3,15.9,15.9v31.9h-10.6V919H319.9
			z M351.8,908.3v-8c0-3.5-1.8-5.3-5.3-5.3h-21.2c-3.5,0-5.3,1.8-5.3,5.3v8H351.8z"/>
		<path class="st1" d="M367.7,932.2v-47.8h37.2c10.6,0,15.9,5.3,15.9,15.9v15.9c0,10.6-5.3,15.9-15.9,15.9H367.7z M404.9,921.6
			c3.5,0,5.3-1.8,5.3-5.3v-15.9c0-3.5-1.8-5.3-5.3-5.3h-26.6v26.5H404.9z"/>
		<path class="st1" d="M426.1,932.2v-47.8h10.6v47.8H426.1z"/>
		<path class="st1" d="M458,932.2c-10.6,0-15.9-5.3-15.9-15.9v-15.9c0-10.6,5.3-15.9,15.9-15.9h21.2c10.6,0,15.9,5.3,15.9,15.9v15.9
			c0,10.6-4.4,15.9-13.3,15.9H458z M458,921.6h21.2c3.5,0,5.3-1.8,5.3-5.3v-15.9c0-3.5-1.8-5.3-5.3-5.3H458c-3.5,0-5.3,1.8-5.3,5.3
			v15.9C452.7,919.9,454.4,921.6,458,921.6z"/>
	</g>
</g>
</svg>
